<svg id="visual" viewBox="0 0 900 450" width="900" height="450" xmlns="http://www.w3.org/2000/svg" xmlns:xlink="http://www.w3.org/1999/xlink" version="1.1"><g stroke-width="1" stroke-linejoin="bevel"><path d="M474 242L535 202L403 162Z" fill="#101315" stroke="#101315"></path><path d="M606 237L576 196L535 202Z" fill="#465156" stroke="#465156"></path><path d="M535 202L506 54L403 162Z" fill="#101315" stroke="#101315"></path><path d="M403 162L369 230L474 242Z" fill="#3a4246" stroke="#3a4246"></path><path d="M576 196L506 54L535 202Z" fill="#2e3437" stroke="#2e3437"></path><path d="M506 54L373 91L403 162Z" fill="#3a4246" stroke="#3a4246"></path><path d="M403 162L272 190L369 230Z" fill="#101315" stroke="#101315"></path><path d="M474 242L606 237L535 202Z" fill="#1c2022" stroke="#1c2022"></path><path d="M576 196L630 59L506 54Z" fill="#465156" stroke="#465156"></path><path d="M583 0L479 0L506 54Z" fill="#171a1b" stroke="#171a1b"></path><path d="M506 54L398 0L373 91Z" fill="#404a4e" stroke="#404a4e"></path><path d="M412 360L466 351L474 242Z" fill="#3a4246" stroke="#3a4246"></path><path d="M474 242L466 351L606 237Z" fill="#404a4e" stroke="#404a4e"></path><path d="M479 0L398 0L506 54Z" fill="#282d30" stroke="#282d30"></path><path d="M398 0L325 54L373 91Z" fill="#070a0c" stroke="#070a0c"></path><path d="M373 91L272 190L403 162Z" fill="#282d30" stroke="#282d30"></path><path d="M682 124L630 59L576 196Z" fill="#282d30" stroke="#282d30"></path><path d="M369 230L412 360L474 242Z" fill="#2e3437" stroke="#2e3437"></path><path d="M325 54L272 190L373 91Z" fill="#3a4246" stroke="#3a4246"></path><path d="M369 230L263 350L412 360Z" fill="#282d30" stroke="#282d30"></path><path d="M660 301L672 206L606 237Z" fill="#465156" stroke="#465156"></path><path d="M606 237L672 206L576 196Z" fill="#171a1b" stroke="#171a1b"></path><path d="M630 59L583 0L506 54Z" fill="#465156" stroke="#465156"></path><path d="M672 206L682 124L576 196Z" fill="#282d30" stroke="#282d30"></path><path d="M630 59L681 0L583 0Z" fill="#404a4e" stroke="#404a4e"></path><path d="M272 190L265 251L369 230Z" fill="#222629" stroke="#222629"></path><path d="M587 397L660 301L606 237Z" fill="#3a4246" stroke="#3a4246"></path><path d="M398 0L319 0L325 54Z" fill="#3a4246" stroke="#3a4246"></path><path d="M184 119L182 165L272 190Z" fill="#222629" stroke="#222629"></path><path d="M474 450L587 397L466 351Z" fill="#2e3437" stroke="#2e3437"></path><path d="M466 351L587 397L606 237Z" fill="#282d30" stroke="#282d30"></path><path d="M682 124L681 0L630 59Z" fill="#465156" stroke="#465156"></path><path d="M265 251L263 350L369 230Z" fill="#1c2022" stroke="#1c2022"></path><path d="M421 450L474 450L466 351Z" fill="#282d30" stroke="#282d30"></path><path d="M421 450L466 351L412 360Z" fill="#404a4e" stroke="#404a4e"></path><path d="M298 450L421 450L412 360Z" fill="#404a4e" stroke="#404a4e"></path><path d="M265 251L208 287L263 350Z" fill="#282d30" stroke="#282d30"></path><path d="M182 165L208 287L265 251Z" fill="#3a4246" stroke="#3a4246"></path><path d="M182 165L265 251L272 190Z" fill="#171a1b" stroke="#171a1b"></path><path d="M184 119L272 190L325 54Z" fill="#171a1b" stroke="#171a1b"></path><path d="M206 0L184 119L325 54Z" fill="#2e3437" stroke="#2e3437"></path><path d="M684 450L724 323L660 301Z" fill="#404a4e" stroke="#404a4e"></path><path d="M660 301L724 323L672 206Z" fill="#3a4246" stroke="#3a4246"></path><path d="M672 206L768 113L682 124Z" fill="#3a4246" stroke="#3a4246"></path><path d="M682 124L768 113L681 0Z" fill="#343b3f" stroke="#343b3f"></path><path d="M474 450L580 450L587 397Z" fill="#404a4e" stroke="#404a4e"></path><path d="M587 397L684 450L660 301Z" fill="#404a4e" stroke="#404a4e"></path><path d="M810 215L768 113L672 206Z" fill="#101315" stroke="#101315"></path><path d="M319 0L206 0L325 54Z" fill="#171a1b" stroke="#171a1b"></path><path d="M69 325L223 369L208 287Z" fill="#101315" stroke="#101315"></path><path d="M208 287L223 369L263 350Z" fill="#070a0c" stroke="#070a0c"></path><path d="M263 350L298 450L412 360Z" fill="#2e3437" stroke="#2e3437"></path><path d="M223 369L298 450L263 350Z" fill="#101315" stroke="#101315"></path><path d="M724 323L792 246L672 206Z" fill="#404a4e" stroke="#404a4e"></path><path d="M792 246L810 215L672 206Z" fill="#070a0c" stroke="#070a0c"></path><path d="M580 450L684 450L587 397Z" fill="#171a1b" stroke="#171a1b"></path><path d="M724 323L827 368L792 246Z" fill="#101315" stroke="#101315"></path><path d="M900 292L900 185L810 215Z" fill="#171a1b" stroke="#171a1b"></path><path d="M182 165L116 239L208 287Z" fill="#222629" stroke="#222629"></path><path d="M68 215L116 239L182 165Z" fill="#343b3f" stroke="#343b3f"></path><path d="M80 117L182 165L184 119Z" fill="#101315" stroke="#101315"></path><path d="M900 96L806 0L768 113Z" fill="#343b3f" stroke="#343b3f"></path><path d="M768 113L806 0L681 0Z" fill="#404a4e" stroke="#404a4e"></path><path d="M102 0L80 117L184 119Z" fill="#070a0c" stroke="#070a0c"></path><path d="M684 450L767 450L724 323Z" fill="#101315" stroke="#101315"></path><path d="M767 450L827 368L724 323Z" fill="#2e3437" stroke="#2e3437"></path><path d="M810 215L900 185L768 113Z" fill="#101315" stroke="#101315"></path><path d="M80 117L68 215L182 165Z" fill="#404a4e" stroke="#404a4e"></path><path d="M69 325L174 450L223 369Z" fill="#343b3f" stroke="#343b3f"></path><path d="M223 369L174 450L298 450Z" fill="#404a4e" stroke="#404a4e"></path><path d="M69 325L208 287L116 239Z" fill="#1c2022" stroke="#1c2022"></path><path d="M206 0L102 0L184 119Z" fill="#3a4246" stroke="#3a4246"></path><path d="M900 292L810 215L792 246Z" fill="#171a1b" stroke="#171a1b"></path><path d="M68 215L69 325L116 239Z" fill="#465156" stroke="#465156"></path><path d="M900 185L900 96L768 113Z" fill="#101315" stroke="#101315"></path><path d="M827 368L900 292L792 246Z" fill="#3a4246" stroke="#3a4246"></path><path d="M900 379L900 292L827 368Z" fill="#404a4e" stroke="#404a4e"></path><path d="M900 96L900 0L806 0Z" fill="#222629" stroke="#222629"></path><path d="M69 325L102 450L174 450Z" fill="#1c2022" stroke="#1c2022"></path><path d="M68 215L0 286L69 325Z" fill="#101315" stroke="#101315"></path><path d="M69 325L0 353L102 450Z" fill="#343b3f" stroke="#343b3f"></path><path d="M80 117L0 195L68 215Z" fill="#2e3437" stroke="#2e3437"></path><path d="M0 66L0 195L80 117Z" fill="#3a4246" stroke="#3a4246"></path><path d="M900 450L900 379L827 368Z" fill="#2e3437" stroke="#2e3437"></path><path d="M102 0L0 66L80 117Z" fill="#3a4246" stroke="#3a4246"></path><path d="M0 195L0 286L68 215Z" fill="#282d30" stroke="#282d30"></path><path d="M102 0L0 0L0 66Z" fill="#101315" stroke="#101315"></path><path d="M0 286L0 353L69 325Z" fill="#070a0c" stroke="#070a0c"></path><path d="M767 450L900 450L827 368Z" fill="#222629" stroke="#222629"></path><path d="M0 353L0 450L102 450Z" fill="#2e3437" stroke="#2e3437"></path></g></svg>