<svg id="visual" viewBox="0 0 1600 900" width="1600" height="900" xmlns="http://www.w3.org/2000/svg" xmlns:xlink="http://www.w3.org/1999/xlink" version="1.1"><g stroke-width="1" stroke-linejoin="bevel"><path d="M867.9 413L884.9 321L742.1 313Z" fill="#1d4e6b" stroke="#1d4e6b"></path><path d="M742.1 313L719.1 478L867.9 413Z" fill="#277297" stroke="#277297"></path><path d="M884.9 321L906.9 168L742.1 313Z" fill="#205a7a" stroke="#205a7a"></path><path d="M906.9 168L692.1 171L742.1 313Z" fill="#112e42" stroke="#112e42"></path><path d="M742.1 313L571.3 324L719.1 478Z" fill="#00101c" stroke="#00101c"></path><path d="M692.1 171L571.3 324L742.1 313Z" fill="#277297" stroke="#277297"></path><path d="M719.1 478L913.9 588L867.9 413Z" fill="#19435d" stroke="#19435d"></path><path d="M1066.7 460L1058.7 278L884.9 321Z" fill="#112e42" stroke="#112e42"></path><path d="M884.9 321L1058.7 278L906.9 168Z" fill="#15384f" stroke="#15384f"></path><path d="M1066.7 460L884.9 321L867.9 413Z" fill="#19435d" stroke="#19435d"></path><path d="M554.3 452L671.1 585L719.1 478Z" fill="#081a28" stroke="#081a28"></path><path d="M719.1 478L671.1 585L913.9 588Z" fill="#081a28" stroke="#081a28"></path><path d="M571.3 324L554.3 452L719.1 478Z" fill="#205a7a" stroke="#205a7a"></path><path d="M913.9 588L1066.7 460L867.9 413Z" fill="#15384f" stroke="#15384f"></path><path d="M1208.4 111L1056.7 145L1058.7 278Z" fill="#19435d" stroke="#19435d"></path><path d="M1058.7 278L1056.7 145L906.9 168Z" fill="#246688" stroke="#246688"></path><path d="M906.9 168L862.9 0L692.1 171Z" fill="#15384f" stroke="#15384f"></path><path d="M554.3 452L567.3 572L671.1 585Z" fill="#246688" stroke="#246688"></path><path d="M692.1 171L533.3 168L571.3 324Z" fill="#1d4e6b" stroke="#1d4e6b"></path><path d="M571.3 324L382.6 272L554.3 452Z" fill="#00101c" stroke="#00101c"></path><path d="M562.3 0L533.3 168L692.1 171Z" fill="#0c2435" stroke="#0c2435"></path><path d="M913.9 588L1071.7 600L1066.7 460Z" fill="#19435d" stroke="#19435d"></path><path d="M1066.7 460L1220.4 326L1058.7 278Z" fill="#205a7a" stroke="#205a7a"></path><path d="M1076.7 787L1071.7 600L913.9 588Z" fill="#0c2435" stroke="#0c2435"></path><path d="M1071.7 0L862.9 0L906.9 168Z" fill="#112e42" stroke="#112e42"></path><path d="M862.9 0L685.1 0L692.1 171Z" fill="#19435d" stroke="#19435d"></path><path d="M1283.4 483L1220.4 326L1066.7 460Z" fill="#081a28" stroke="#081a28"></path><path d="M694.1 771L877.9 769L671.1 585Z" fill="#00101c" stroke="#00101c"></path><path d="M671.1 585L877.9 769L913.9 588Z" fill="#0c2435" stroke="#0c2435"></path><path d="M567.3 572L694.1 771L671.1 585Z" fill="#15384f" stroke="#15384f"></path><path d="M685.1 0L562.3 0L692.1 171Z" fill="#297ea6" stroke="#297ea6"></path><path d="M327.6 121L382.6 272L533.3 168Z" fill="#277297" stroke="#277297"></path><path d="M533.3 168L382.6 272L571.3 324Z" fill="#246688" stroke="#246688"></path><path d="M554.3 452L327.6 418L567.3 572Z" fill="#15384f" stroke="#15384f"></path><path d="M1208.4 111L1071.7 0L1056.7 145Z" fill="#1d4e6b" stroke="#1d4e6b"></path><path d="M1056.7 145L1071.7 0L906.9 168Z" fill="#297ea6" stroke="#297ea6"></path><path d="M1220.4 326L1208.4 111L1058.7 278Z" fill="#15384f" stroke="#15384f"></path><path d="M382.6 272L327.6 418L554.3 452Z" fill="#297ea6" stroke="#297ea6"></path><path d="M567.3 572L531.3 785L694.1 771Z" fill="#246688" stroke="#246688"></path><path d="M1071.7 600L1283.4 483L1066.7 460Z" fill="#15384f" stroke="#15384f"></path><path d="M1405.2 154L1236.4 0L1208.4 111Z" fill="#297ea6" stroke="#297ea6"></path><path d="M1247.4 632L1283.4 483L1071.7 600Z" fill="#00101c" stroke="#00101c"></path><path d="M1030.7 900L1076.7 787L877.9 769Z" fill="#112e42" stroke="#112e42"></path><path d="M877.9 769L1076.7 787L913.9 588Z" fill="#277297" stroke="#277297"></path><path d="M320.6 632L531.3 785L567.3 572Z" fill="#277297" stroke="#277297"></path><path d="M718.1 900L874.9 900L877.9 769Z" fill="#0c2435" stroke="#0c2435"></path><path d="M1218.4 746L1247.4 632L1071.7 600Z" fill="#00101c" stroke="#00101c"></path><path d="M381.6 0L327.6 121L533.3 168Z" fill="#246688" stroke="#246688"></path><path d="M382.6 272L174.8 317L327.6 418Z" fill="#15384f" stroke="#15384f"></path><path d="M718.1 900L877.9 769L694.1 771Z" fill="#205a7a" stroke="#205a7a"></path><path d="M531.3 785L718.1 900L694.1 771Z" fill="#081a28" stroke="#081a28"></path><path d="M1405.2 154L1208.4 111L1220.4 326Z" fill="#205a7a" stroke="#205a7a"></path><path d="M1208.4 111L1236.4 0L1071.7 0Z" fill="#0c2435" stroke="#0c2435"></path><path d="M562.3 0L381.6 0L533.3 168Z" fill="#246688" stroke="#246688"></path><path d="M190.8 456L320.6 632L327.6 418Z" fill="#081a28" stroke="#081a28"></path><path d="M327.6 418L320.6 632L567.3 572Z" fill="#112e42" stroke="#112e42"></path><path d="M1275.4 900L1218.4 746L1076.7 787Z" fill="#00101c" stroke="#00101c"></path><path d="M1076.7 787L1218.4 746L1071.7 600Z" fill="#1d4e6b" stroke="#1d4e6b"></path><path d="M1445.2 570L1384.2 418L1283.4 483Z" fill="#112e42" stroke="#112e42"></path><path d="M1283.4 483L1384.2 418L1220.4 326Z" fill="#297ea6" stroke="#297ea6"></path><path d="M1445.2 570L1283.4 483L1247.4 632Z" fill="#246688" stroke="#246688"></path><path d="M874.9 900L1030.7 900L877.9 769Z" fill="#1d4e6b" stroke="#1d4e6b"></path><path d="M320.6 632L387.6 786L531.3 785Z" fill="#112e42" stroke="#112e42"></path><path d="M531.3 785L515.3 900L718.1 900Z" fill="#297ea6" stroke="#297ea6"></path><path d="M387.6 786L515.3 900L531.3 785Z" fill="#081a28" stroke="#081a28"></path><path d="M1445.2 309L1405.2 154L1220.4 326Z" fill="#205a7a" stroke="#205a7a"></path><path d="M178.8 0L215.8 159L327.6 121Z" fill="#081a28" stroke="#081a28"></path><path d="M327.6 121L215.8 159L382.6 272Z" fill="#15384f" stroke="#15384f"></path><path d="M174.8 317L190.8 456L327.6 418Z" fill="#1d4e6b" stroke="#1d4e6b"></path><path d="M320.6 632L198.8 780L387.6 786Z" fill="#0c2435" stroke="#0c2435"></path><path d="M1600 324L1445.2 309L1600 471Z" fill="#081a28" stroke="#081a28"></path><path d="M1384.2 418L1445.2 309L1220.4 326Z" fill="#15384f" stroke="#15384f"></path><path d="M215.8 159L174.8 317L382.6 272Z" fill="#19435d" stroke="#19435d"></path><path d="M1398.2 749L1247.4 632L1218.4 746Z" fill="#19435d" stroke="#19435d"></path><path d="M1398.2 749L1445.2 570L1247.4 632Z" fill="#1d4e6b" stroke="#1d4e6b"></path><path d="M1600 120L1419.2 0L1405.2 154Z" fill="#297ea6" stroke="#297ea6"></path><path d="M1405.2 154L1419.2 0L1236.4 0Z" fill="#297ea6" stroke="#297ea6"></path><path d="M1275.4 900L1398.2 749L1218.4 746Z" fill="#246688" stroke="#246688"></path><path d="M0 468L151.8 628L190.8 456Z" fill="#246688" stroke="#246688"></path><path d="M190.8 456L151.8 628L320.6 632Z" fill="#1d4e6b" stroke="#1d4e6b"></path><path d="M387.6 786L317.6 900L515.3 900Z" fill="#297ea6" stroke="#297ea6"></path><path d="M1030.7 900L1275.4 900L1076.7 787Z" fill="#1d4e6b" stroke="#1d4e6b"></path><path d="M0 186L0 260L174.8 317Z" fill="#112e42" stroke="#112e42"></path><path d="M174.8 317L0 468L190.8 456Z" fill="#112e42" stroke="#112e42"></path><path d="M381.6 0L178.8 0L327.6 121Z" fill="#19435d" stroke="#19435d"></path><path d="M198.8 780L317.6 900L387.6 786Z" fill="#0c2435" stroke="#0c2435"></path><path d="M151.8 628L198.8 780L320.6 632Z" fill="#0c2435" stroke="#0c2435"></path><path d="M1600 471L1445.2 309L1384.2 418Z" fill="#19435d" stroke="#19435d"></path><path d="M1445.2 309L1600 120L1405.2 154Z" fill="#246688" stroke="#246688"></path><path d="M1600 471L1384.2 418L1445.2 570Z" fill="#277297" stroke="#277297"></path><path d="M1600 627L1600 471L1445.2 570Z" fill="#0c2435" stroke="#0c2435"></path><path d="M1275.4 900L1394.2 900L1398.2 749Z" fill="#205a7a" stroke="#205a7a"></path><path d="M1600 717L1600 627L1445.2 570Z" fill="#277297" stroke="#277297"></path><path d="M198.8 780L208.8 900L317.6 900Z" fill="#246688" stroke="#246688"></path><path d="M0 900L208.8 900L198.8 780Z" fill="#112e42" stroke="#112e42"></path><path d="M0 186L174.8 317L215.8 159Z" fill="#246688" stroke="#246688"></path><path d="M151.8 628L0 748L198.8 780Z" fill="#205a7a" stroke="#205a7a"></path><path d="M0 260L0 468L174.8 317Z" fill="#00101c" stroke="#00101c"></path><path d="M1600 324L1600 120L1445.2 309Z" fill="#1d4e6b" stroke="#1d4e6b"></path><path d="M178.8 0L0 186L215.8 159Z" fill="#19435d" stroke="#19435d"></path><path d="M1600 717L1445.2 570L1398.2 749Z" fill="#19435d" stroke="#19435d"></path><path d="M0 468L0 638L151.8 628Z" fill="#1d4e6b" stroke="#1d4e6b"></path><path d="M1600 120L1600 0L1419.2 0Z" fill="#112e42" stroke="#112e42"></path><path d="M1600 900L1600 717L1398.2 749Z" fill="#1d4e6b" stroke="#1d4e6b"></path><path d="M178.8 0L0 0L0 186Z" fill="#19435d" stroke="#19435d"></path><path d="M0 638L0 748L151.8 628Z" fill="#112e42" stroke="#112e42"></path><path d="M1394.2 900L1600 900L1398.2 749Z" fill="#081a28" stroke="#081a28"></path><path d="M0 748L0 900L198.8 780Z" fill="#081a28" stroke="#081a28"></path></g></svg>