<svg id="visual" viewBox="0 0 1600 900" width="1600" height="900" xmlns="http://www.w3.org/2000/svg" xmlns:xlink="http://www.w3.org/1999/xlink" version="1.1"><rect x="0" y="0" width="1600" height="900" fill="#e1e1e1"></rect><defs><linearGradient id="grad1_0" x1="43.8%" y1="0%" x2="100%" y2="100%"><stop offset="14.444444444444446%" stop-color="#e1e1e1" stop-opacity="1"></stop><stop offset="85.55555555555554%" stop-color="#e1e1e1" stop-opacity="1"></stop></linearGradient></defs><defs><linearGradient id="grad2_0" x1="0%" y1="0%" x2="56.3%" y2="100%"><stop offset="14.444444444444446%" stop-color="#e1e1e1" stop-opacity="1"></stop><stop offset="85.55555555555554%" stop-color="#e1e1e1" stop-opacity="1"></stop></linearGradient></defs><g transform="translate(1600, 0)"><path d="M0 765C-149.1 753.8 -298.1 742.6 -382.5 662.5C-466.9 582.4 -486.6 433.4 -539.5 311.5C-592.5 189.6 -678.8 94.8 -765 0L0 0Z" fill="#FBAE3C"></path></g><g transform="translate(0, 900)"><path d="M0 -765C148.6 -753.5 297.2 -742.1 382.5 -662.5C467.8 -582.9 489.8 -435.3 543 -313.5C596.2 -191.7 680.6 -95.9 765 0L0 0Z" fill="#FBAE3C"></path></g></svg>