<svg id="visual" viewBox="0 0 1900 1000" width="1900" height="1000" xmlns="http://www.w3.org/2000/svg" xmlns:xlink="http://www.w3.org/1999/xlink" version="1.1"><rect x="0" y="0" width="1900" height="1000" fill="#949ec5"></rect><defs><linearGradient id="grad1_0" x1="47.4%" y1="0%" x2="100%" y2="100%"><stop offset="12.000000000000004%" stop-color="#949ec5" stop-opacity="1"></stop><stop offset="87.99999999999999%" stop-color="#949ec5" stop-opacity="1"></stop></linearGradient></defs><defs><linearGradient id="grad2_0" x1="0%" y1="0%" x2="52.6%" y2="100%"><stop offset="12.000000000000004%" stop-color="#949ec5" stop-opacity="1"></stop><stop offset="87.99999999999999%" stop-color="#949ec5" stop-opacity="1"></stop></linearGradient></defs><g transform="translate(1900, 0)"><path d="M0 900C-120 891.4 -239.9 882.8 -344.4 831.5C-448.9 780.2 -538 686.2 -587.6 587.6C-637.2 489 -647.4 385.7 -692.9 287C-738.4 188.3 -819.2 94.2 -900 0L0 0Z" fill="#FBAE3C"></path></g><g transform="translate(0, 1000)"><path d="M0 -900C89.3 -819.7 178.6 -739.3 293.1 -707.7C407.7 -676 547.4 -693.1 636.4 -636.4C725.4 -579.7 763.7 -449.4 799.2 -331C834.6 -212.7 867.3 -106.3 900 0L0 0Z" fill="#FBAE3C"></path></g></svg>